<svg width="677" height="106" viewBox="0 0 677 106" fill="none" xmlns="http://www.w3.org/2000/svg">
<path d="M106.138 28.3246C106.138 19.9553 98.2383 15.7705 82.4373 15.7705H9.06058C5.02022 15.7705 3 13.8946 3 10.1428C3 6.03027 5.02022 3.974 9.06058 3.974H82.7616C108.014 3.974 120.641 12.0909 120.641 28.3246V76.4847C120.641 93.7285 107.906 102.351 82.4373 102.351H7.76189C4.58735 102.351 3 100.691 3 97.3724V36.225C3 31.7518 5.45309 29.5151 10.3593 29.5151C15.3376 29.5151 17.8269 31.7518 17.8269 36.225V90.5538H82.1122C98.1297 90.5538 106.138 85.8646 106.138 76.4847V28.3246Z" fill="white" stroke="white" stroke-width="5" stroke-linejoin="round"/>
<path d="M207.329 18.8009L153.325 99.9694C152.675 101.052 151.882 101.81 150.943 102.243C150.006 102.675 148.923 102.891 147.697 102.891C145.894 102.891 144.198 102.314 142.61 101.16C141.023 99.9339 140.229 98.3462 140.229 96.398C140.229 95.8933 140.301 95.3163 140.445 94.6669C140.59 94.0175 140.915 93.3681 141.42 92.7186L141.311 92.8265L197.805 8.30307C198.96 6.57144 200.33 5.27275 201.918 4.40693C203.577 3.469 205.308 3 207.113 3C208.772 3 210.431 3.43295 212.091 4.29876C213.822 5.16451 215.302 6.49933 216.528 8.30307L273.129 92.61H273.022C274.032 94.0537 274.537 95.3518 274.537 96.5066C274.537 98.3824 273.743 99.8977 272.156 101.052C270.64 102.207 268.981 102.784 267.178 102.784C266.023 102.784 264.904 102.531 263.823 102.026C262.74 101.521 261.874 100.727 261.225 99.645V99.7529L207.329 18.8009Z" fill="white" stroke="white" stroke-width="5" stroke-linejoin="round"/>
<path d="M325.618 96.8308C325.618 100.944 323.202 103 318.368 103C313.461 103 311.008 100.944 311.008 96.8308V28.1082C311.008 23.2742 311.008 9.60171 318.368 7.49994C325.618 7.49994 325.618 23.2742 325.618 28.1082V96.8308ZM270.64 15.7705C267.032 15.7705 265.229 13.7143 265.229 9.60171C265.229 5.84993 267.032 3.974 270.64 3.974H366.094C369.558 3.974 371.29 5.84993 371.29 9.60171C371.29 13.7143 369.558 15.7705 366.094 15.7705H270.64Z" fill="white" stroke="white" stroke-width="5" stroke-linejoin="round"/>
<path d="M512.848 47.8051C516.239 47.8051 517.935 49.7892 517.935 53.7575C517.935 57.5815 516.239 59.4934 512.848 59.4934H478.432C474.103 59.4934 471.939 57.5815 471.939 53.7575C471.939 49.7892 474.103 47.8051 478.432 47.8051H512.848ZM456.354 102.783C451.448 102.783 448.995 100.799 448.995 96.8308V15.7705H444.775L388.714 99.9693C387.992 100.98 387.126 101.737 386.116 102.243C385.178 102.747 384.204 103 383.194 103C381.752 103 380.309 102.567 378.866 101.701C377.494 100.835 376.557 99.7528 376.052 98.4547V98.5626C375.691 97.1197 375.511 96.3624 375.511 96.29C375.511 94.9912 375.943 93.8009 376.809 92.7186L376.701 92.8264L433.195 8.30302C435.07 5.41698 438.245 3.974 442.718 3.974H458.735C462.127 3.974 463.822 5.99422 463.822 10.0346V90.5538H512.956C516.492 90.5538 518.259 92.5383 518.259 96.5065C518.259 100.402 516.492 102.351 512.956 102.351H459.601C459.096 102.639 458.014 102.783 456.354 102.783Z" fill="white" stroke="white" stroke-width="5" stroke-linejoin="round"/>
<path d="M570.964 102.351C548.887 102.351 537.848 95.388 537.848 81.4635V9.38529C537.848 5.34493 540.301 3.32471 545.207 3.32471C550.185 3.32471 552.674 5.34493 552.674 9.38529V81.4635C552.674 87.524 558.519 90.5539 570.207 90.5539H640.012C643.692 90.5539 645.532 92.6462 645.532 96.8309C645.532 100.511 643.692 102.351 640.012 102.351H570.964Z" fill="white" stroke="white" stroke-width="5" stroke-linejoin="round"/>
<path d="M674.32 96.8309C674.32 100.799 671.831 102.784 666.852 102.784C661.946 102.784 659.493 100.799 659.493 96.8309V9.38529C659.493 5.34493 662.054 3.32471 667.177 3.32471C671.939 3.32471 674.32 5.34493 674.32 9.38529V96.8309Z" fill="white" stroke="white" stroke-width="5" stroke-linejoin="round"/>
</svg>
