<svg width="107" height="18" viewBox="0 0 107 18" fill="none" xmlns="http://www.w3.org/2000/svg">
<path d="M2 2.00003H14.1176C16.6125 2.00003 17.6817 3.44788 18.0381 4.53383C18.3232 5.40256 18.9265 11.7172 18.0381 13.2211C17.6817 13.8244 16.6125 15.4653 15.1869 15.7549C13.7612 16.0445 2 16.1169 2 15.7549V6.28765M23.3841 15.7549L31.5813 2.72391C32.0565 1.99997 33.0247 1.31207 34.0761 3.44788C34.4325 4.17182 39.6597 12.6178 42.2734 15.7549M50.1142 15.7549V4.89577M43.3426 2H57.5986M60.4498 15.7549C60.4498 15.7549 67.9343 2.418 69.3599 2.36197C70.7855 2.30594 71.1419 2.18099 71.4983 2.36197C71.8547 2.54296 71.8547 13.5831 71.8547 13.5831C71.8547 13.5831 71.89 14.9547 72.2111 15.3929C72.5322 15.8311 73.2803 15.7549 73.2803 15.7549H80.4083M75.4187 8.87744H80.4083M85.7543 2.00003C85.7543 2.00003 85.7543 12.1352 86.1107 14.307C86.2358 15.0691 87.6789 15.7549 89.6747 15.7549H100.723M105 15.7549V2.00003" stroke="black" stroke-width="3" stroke-linecap="round"/>
</svg>
