<svg width="500" height="75" viewBox="0 0 500 75" fill="none" xmlns="http://www.w3.org/2000/svg">
<path d="M76.8175 18.8619C76.8175 12.6284 70.9335 9.51164 59.1649 9.51164H4.51392C1.50466 9.51164 0 8.11445 0 5.32012C0 2.2571 1.50466 0.725586 4.51392 0.725586H59.4064C78.2147 0.725586 87.6188 6.77102 87.6188 18.8619V54.7316C87.6188 67.5747 78.1338 73.9964 59.1649 73.9964H3.54666C1.18225 73.9964 0 72.7605 0 70.2887V24.7461C0 21.4145 1.82706 19.7486 5.48124 19.7486C9.18907 19.7486 11.043 21.4145 11.043 24.7461V65.2102H58.9227C70.8526 65.2102 76.8175 61.7177 76.8175 54.7316V18.8619Z" fill="black"/>
<path d="M152.184 11.7685L111.962 72.2228C111.478 73.0289 110.887 73.5935 110.188 73.916C109.49 74.2379 108.684 74.3991 107.77 74.3991C106.427 74.3991 105.164 73.9693 103.982 73.1098C102.8 72.1964 102.208 71.0138 102.208 69.5628C102.208 69.1869 102.262 68.7572 102.369 68.2735C102.477 67.7898 102.719 67.3061 103.095 66.8224L103.014 66.9028L145.091 3.94973C145.951 2.66001 146.971 1.69274 148.154 1.04788C149.39 0.349311 150.679 0 152.023 0C153.259 0 154.495 0.322458 155.731 0.96732C157.02 1.61213 158.122 2.6063 159.035 3.94973L201.192 66.7415H201.112C201.864 67.8168 202.24 68.7836 202.24 69.6437C202.24 71.0408 201.649 72.1694 200.467 73.0289C199.338 73.889 198.102 74.3188 196.759 74.3188C195.899 74.3188 195.066 74.1306 194.26 73.7547C193.454 73.3783 192.809 72.7874 192.326 71.9812V72.0615L152.184 11.7685Z" fill="black"/>
<path d="M240.286 69.8853C240.286 72.9487 238.486 74.4801 234.886 74.4801C231.231 74.4801 229.404 72.9487 229.404 69.8853V18.7007C229.404 15.1003 231.204 13.3001 234.805 13.3001C238.459 13.3001 240.286 15.1003 240.286 18.7007V69.8853ZM199.338 9.51164C196.651 9.51164 195.308 7.98013 195.308 4.9171C195.308 2.12278 196.651 0.725586 199.338 0.725586H270.433C273.012 0.725586 274.302 2.12278 274.302 4.9171C274.302 7.98013 273.012 9.51164 270.433 9.51164H199.338Z" fill="black"/>
<path d="M379.734 33.371C382.26 33.371 383.523 34.8488 383.523 37.8043C383.523 40.6524 382.26 42.0764 379.734 42.0764H354.102C350.878 42.0764 349.265 40.6524 349.265 37.8043C349.265 34.8488 350.878 33.371 354.102 33.371H379.734ZM337.658 74.3189C334.004 74.3189 332.177 72.8408 332.177 69.8853V9.51164H329.034L287.28 72.2229C286.742 72.9756 286.097 73.5397 285.345 73.9161C284.646 74.2919 283.921 74.4801 283.169 74.4801C282.094 74.4801 281.019 74.1576 279.945 73.5127C278.923 72.8678 278.225 72.0616 277.849 71.0948V71.1752C277.58 70.1005 277.446 69.5365 277.446 69.4825C277.446 68.5152 277.768 67.6287 278.413 66.8225L278.332 66.9029L320.409 3.94984C321.806 1.80032 324.17 0.725586 327.502 0.725586H339.432C341.957 0.725586 343.22 2.23024 343.22 5.23951V65.2102H379.815C382.448 65.2102 383.765 66.6883 383.765 69.6438C383.765 72.5453 382.448 73.9964 379.815 73.9964H340.076C339.7 74.2116 338.894 74.3189 337.658 74.3189Z" fill="black"/>
<path d="M423.02 73.9966C406.577 73.9966 398.354 68.8109 398.354 58.44V4.75611C398.354 1.74685 400.181 0.242188 403.836 0.242188C407.543 0.242188 409.397 1.74685 409.397 4.75611V58.44C409.397 62.9538 413.751 65.2105 422.456 65.2105H474.446C477.187 65.2105 478.557 66.7688 478.557 69.8856C478.557 72.6265 477.187 73.9966 474.446 73.9966H423.02Z" fill="black"/>
<path d="M499.999 69.8856C499.999 72.8411 498.145 74.3191 494.437 74.3191C490.783 74.3191 488.956 72.8411 488.956 69.8856V4.75611C488.956 1.74685 490.863 0.242188 494.679 0.242188C498.225 0.242188 499.999 1.74685 499.999 4.75611V69.8856Z" fill="black"/>
</svg>
