<svg width="671" height="108" viewBox="0 0 671 108" fill="none" xmlns="http://www.w3.org/2000/svg">
<path d="M10 10.0002H86.5882C102.356 10.0002 109.114 19.101 111.367 25.9269C113.169 31.3875 116.982 71.0796 111.367 80.5328C109.114 84.3249 102.356 94.6393 93.346 96.4595C84.3356 98.2797 10 98.7347 10 96.4595V36.951M145.156 96.4591L196.965 14.5503C199.969 9.99981 206.088 5.67588 212.734 19.101C214.986 23.6515 248.024 76.7403 264.543 96.4591M314.1 96.4591V14.5503M271.301 10H361.405M379.426 96.4591C379.426 96.4591 426.73 12.6274 435.741 12.2752C444.751 11.9231 447.003 11.1376 449.256 12.2752C451.509 13.4129 451.509 82.8078 451.509 82.8078C451.509 82.8078 451.732 91.4296 453.761 94.1841C455.791 96.9386 460.519 96.4591 460.519 96.4591H505.571M474.035 53.2297H505.571M539.36 10.0002C539.36 10.0002 539.36 73.7071 541.612 87.3585C542.403 92.1486 551.524 96.4591 564.138 96.4591H633.969M661 96.4591V10.0002" stroke="white" stroke-width="20" stroke-linecap="round"/>
</svg>
